<svg width="126" height="252" viewBox="0 0 126 252" xmlns="http://www.w3.org/2000/svg">
<path d="M89.9908 5.32564L90.273 4.53568C90.7442 3.21631 91.6417 2.09164 92.8237 1.33949C95.0358 -0.0682105 97.8885 0.0413462 99.9861 1.61456L105.421 5.69045C106.137 6.22772 106.922 6.66633 107.755 6.99453L120.375 11.9658C122.069 12.6334 123.471 13.8826 124.328 15.4897C125.915 18.4659 125.37 22.1301 122.985 24.5152L120.282 27.2178C119.434 28.0657 118.746 29.0592 118.25 30.1508L117.396 32.0281C116.806 33.3276 116.5 34.7386 116.5 36.1661V42.1393C116.5 43.6918 116.861 45.2229 117.556 46.6115L117.944 47.3885C118.639 48.7771 119 50.3082 119 51.8607V52.2679C119 53.4141 118.803 54.5518 118.417 55.6312L116.5 61L104.869 87.0543C104.296 88.337 104 89.726 104 91.1308V100.527C104 101.174 103.937 101.82 103.812 102.455L98.5 129.5L88.3923 162.711C88.132 163.566 87.758 164.383 87.2805 165.139L76 183L65.7492 196.512C65.2516 197.168 64.837 197.883 64.5146 198.641L55.7985 219.124C55.2716 220.362 55 221.694 55 223.039V247.297C55 248.398 54.6143 249.463 53.91 250.308L53.3691 250.957C52.8184 251.618 52.0026 252 51.1425 252C50.4083 252 49.7015 251.721 49.1648 251.22L45.6768 247.965C43.6505 246.074 42.5 243.426 42.5 240.654V238C42.6667 236.333 42.3 231.7 39.5 226.5C36.7 221.3 26.6667 213 22 209.5L15.5074 203.413C14.513 202.481 13.7196 201.355 13.1761 200.105L9.52963 191.718C9.17809 190.91 8.93502 190.058 8.80674 189.186L7.04974 177.238C6.69547 174.829 5.47439 172.632 3.61557 171.059L3.54058 170.996C1.29507 169.096 0 166.304 0 163.362V159.553C0 158.524 0.158783 157.501 0.470742 156.521L3.02926 148.479C3.34122 147.499 3.5 146.476 3.5 145.447V123.643C3.5 121.911 3.95015 120.208 4.80633 118.702L30.5 73.5L48 47L54.4329 38.2696C54.8101 37.7577 55.1376 37.211 55.411 36.6369L63.0881 20.515C64.3052 17.959 66.5487 16.0387 69.2619 15.2305L84.2519 10.7654C86.9222 9.96997 89.0537 7.94963 89.9908 5.32564Z"/>
</svg>
