<svg width="272" height="252" viewBox="0 0 272 252" xmlns="http://www.w3.org/2000/svg">
<path fill-rule="evenodd" clip-rule="evenodd" d="M89.9908 4.97113L90.273 4.18117C90.7442 2.8618 91.6417 1.73713 92.8237 0.984976C95.0358 -0.422721 97.8885 -0.313164 99.9861 1.26005L105.421 5.33594C106.137 5.87321 106.922 6.31182 107.755 6.64002L120.375 11.6113C122.069 12.2788 123.471 13.5281 124.328 15.1352C125.915 18.1114 125.37 21.7756 122.985 24.1607L120.282 26.8633C119.434 27.7112 118.746 28.7047 118.25 29.7963L117.396 31.6736C116.806 32.9731 116.5 34.3841 116.5 35.8116V41.7848C116.5 43.3373 116.861 44.8684 117.556 46.2569L117.944 47.034C118.639 48.4226 119 49.9537 119 51.5062V51.9134C119 53.0596 118.803 54.1973 118.417 55.2767L116.5 60.6455L104.869 86.6998C104.296 87.9825 104 89.3715 104 90.7763V100.173C104 100.82 103.937 101.465 103.812 102.1L98.5 129.145L88.3923 162.356C88.132 163.212 87.758 164.029 87.2805 164.785L76 182.645L65.7492 196.158C65.2516 196.814 64.837 197.529 64.5146 198.286L55.7985 218.769C55.2716 220.007 55 221.339 55 222.685V246.943C55 248.043 54.6143 249.108 53.91 249.953L53.3691 250.603C52.8184 251.263 52.0026 251.645 51.1425 251.645C50.4083 251.645 49.7015 251.367 49.1648 250.866L45.6768 247.611C43.6505 245.719 42.5 243.072 42.5 240.3V237.645C42.6667 235.979 42.3 231.345 39.5 226.145C36.7 220.945 26.6667 212.645 22 209.145L15.5074 203.059C14.513 202.126 13.7196 201.001 13.1761 199.751L9.52963 191.364C9.17809 190.555 8.93502 189.704 8.80674 188.831L7.04974 176.884C6.69547 174.475 5.47439 172.278 3.61557 170.705L3.54058 170.641C1.29507 168.741 0 165.949 0 163.008V159.198C0 158.169 0.158783 157.146 0.470742 156.166L3.02926 148.125C3.34122 147.145 3.5 146.122 3.5 145.093V123.289C3.5 121.556 3.95015 119.854 4.80633 118.347L30.5 73.1455L48 46.6455L54.4329 37.9151C54.8101 37.4032 55.1376 36.8565 55.411 36.2824L63.0881 20.1605C64.3052 17.6045 66.5487 15.6842 69.2619 14.876L84.2519 10.4109C86.9222 9.61546 89.0537 7.59512 89.9908 4.97113ZM190.391 90.8867C190.336 91.2148 190.24 91.584 190.104 91.9941C189.994 92.4043 189.83 92.7871 189.611 93.1426C189.42 93.4707 189.174 93.7578 188.873 94.0039C188.572 94.2227 188.217 94.332 187.807 94.332C187.506 94.332 187.205 94.3047 186.904 94.25C186.604 94.168 186.289 94.127 185.961 94.127C185.824 94.127 185.674 94.1816 185.51 94.291C185.373 94.373 185.236 94.4141 185.1 94.4141C184.963 94.4141 184.84 94.4004 184.73 94.373C184.648 94.3184 184.539 94.291 184.402 94.291C184.32 94.291 184.17 94.3184 183.951 94.373C183.732 94.4277 183.5 94.4824 183.254 94.5371C183.008 94.5918 182.775 94.6602 182.557 94.7422C182.338 94.7969 182.188 94.8379 182.105 94.8652C181.367 95.1113 180.629 95.3301 179.891 95.5215C179.272 95.6818 178.635 95.7942 177.978 95.8586C177.848 96.0455 177.72 96.2339 177.594 96.4238C177.238 96.998 176.924 97.627 176.65 98.3105C176.404 98.9668 176.281 99.7871 176.281 100.771V101.182C176.281 101.318 176.295 101.455 176.322 101.592C176.678 101.975 176.965 102.385 177.184 102.822C177.43 103.26 177.826 103.574 178.373 103.766C178.92 103.984 179.494 104.08 180.096 104.053C180.725 104.025 181.326 104.094 181.9 104.258C183.213 104.012 184.471 103.615 185.674 103.068C186.904 102.494 188.066 101.811 189.16 101.018C189.324 100.881 189.516 100.744 189.734 100.607C189.953 100.443 190.131 100.279 190.268 100.115C190.404 99.9785 190.514 99.8281 190.596 99.6641C190.705 99.5 190.814 99.3496 190.924 99.2129C191.143 98.8574 191.389 98.502 191.662 98.1465C191.936 97.791 192.223 97.4629 192.523 97.1621C192.66 96.5605 192.838 95.9863 193.057 95.4395C193.275 94.8652 193.494 94.3047 193.713 93.7578C193.932 93.2109 194.109 92.6504 194.246 92.0762C194.41 91.502 194.492 90.9004 194.492 90.2715C194.492 90.1348 194.479 89.9844 194.451 89.8203C194.451 89.6562 194.438 89.5059 194.41 89.3691C194.629 89.0684 194.738 88.7402 194.738 88.3848C194.738 88.248 194.725 88.125 194.697 88.0156C194.424 87.9336 194.164 87.8242 193.918 87.6875C193.672 87.5508 193.398 87.4824 193.098 87.4824C192.906 87.4824 192.715 87.5234 192.523 87.6055C192.496 87.4141 192.414 87.2773 192.277 87.1953C192.168 87.1133 192.031 87.0449 191.867 86.9902C191.73 86.9082 191.58 86.8535 191.416 86.8262C191.279 86.7715 191.156 86.6895 191.047 86.5801C190.965 86.3613 190.869 86.1426 190.76 85.9238C190.678 85.6777 190.514 85.5 190.268 85.3906C190.021 85.6367 189.734 85.8418 189.406 86.0059C189.078 86.1426 188.736 86.2793 188.381 86.416C188.053 86.5527 187.725 86.7168 187.396 86.9082C187.096 87.0996 186.836 87.332 186.617 87.6055H185.879C185.715 87.9062 185.482 88.1387 185.182 88.3027C184.881 88.4395 184.621 88.6445 184.402 88.918C184.042 89.0984 183.699 89.316 183.376 89.5707C183.776 89.5571 184.187 89.5036 184.607 89.4102C185.1 89.3008 185.592 89.2461 186.084 89.2461C186.221 89.2461 186.33 89.2598 186.412 89.2871H186.74C186.822 89.2871 187.027 89.2324 187.355 89.123C187.684 88.9863 187.916 88.8906 188.053 88.8359C188.408 89.2188 188.805 89.5605 189.242 89.8613C189.68 90.1621 190.062 90.5039 190.391 90.8867ZM171.318 97.9004C171.402 97.6579 171.491 97.4194 171.583 97.1848C171.322 97.2423 171.07 97.3167 170.826 97.4082C170.416 97.5449 170.115 97.8184 169.924 98.2285C169.787 98.2012 169.637 98.1875 169.473 98.1875C169.336 98.1602 169.186 98.1465 169.021 98.1465C168.146 98.1465 167.326 98.3242 166.561 98.6797C165.795 99.0078 165.016 99.3086 164.223 99.582C164.359 99.8281 164.455 100.129 164.51 100.484L164.674 101.551C164.729 101.879 164.797 102.207 164.879 102.535C164.988 102.836 165.166 103.068 165.412 103.232C165.412 103.396 165.371 103.533 165.289 103.643C165.234 103.752 165.166 103.848 165.084 103.93L164.797 104.217C164.715 104.299 164.66 104.422 164.633 104.586C164.551 104.914 164.51 105.256 164.51 105.611C164.51 105.939 164.318 106.186 163.936 106.35C163.963 106.432 163.977 106.582 163.977 106.801C163.977 107.074 163.936 107.334 163.854 107.58C163.771 107.826 163.744 108.1 163.771 108.4C163.307 108.92 162.91 109.453 162.582 110C162.281 110.547 162.049 111.135 161.885 111.764C160.873 112.775 159.834 113.787 158.768 114.799C157.729 115.838 156.648 116.836 155.527 117.793C154.434 118.75 153.299 119.652 152.123 120.5C150.947 121.375 149.73 122.141 148.473 122.797H148.186C147.557 122.797 147.064 122.906 146.709 123.125C146.354 123.344 145.902 123.535 145.355 123.699C144.945 123.59 144.453 123.535 143.879 123.535C143.551 123.535 143.209 123.549 142.854 123.576C142.525 123.604 142.184 123.617 141.828 123.617C141.363 123.617 140.939 123.562 140.557 123.453C140.201 123.344 139.846 123.221 139.49 123.084C139.162 122.947 138.82 122.811 138.465 122.674C138.109 122.537 137.727 122.441 137.316 122.387C135.621 120.691 134.281 118.709 133.297 116.439C132.312 114.197 131.82 111.887 131.82 109.508C131.82 108.414 131.971 107.348 132.271 106.309C132.572 105.242 132.723 104.176 132.723 103.109C133.215 102.125 133.639 101.113 133.994 100.074L135.143 96.957C135.525 95.918 135.936 94.9062 136.373 93.9219C136.838 92.9102 137.385 91.9531 138.014 91.0508C138.15 90.3398 138.369 89.7246 138.67 89.2051C138.971 88.6855 139.299 88.1113 139.654 87.4824C139.654 86.8809 139.777 86.334 140.023 85.8418C140.297 85.3223 140.461 84.748 140.516 84.1191C140.953 83.709 141.309 83.2441 141.582 82.7246C141.855 82.2051 142.115 81.6719 142.361 81.125C142.607 80.5781 142.881 80.0586 143.182 79.5664C143.51 79.0469 143.947 78.6094 144.494 78.2539C144.549 78.0625 144.576 77.8574 144.576 77.6387C144.604 77.3926 144.672 77.2012 144.781 77.0645L145.643 76.1211C145.916 75.7656 146.162 75.4102 146.381 75.0547C146.627 74.6719 146.887 74.3301 147.16 74.0293C147.324 73.8652 147.502 73.7285 147.693 73.6191C147.885 73.5098 148.049 73.3867 148.186 73.25C148.322 73.1133 148.363 72.9355 148.309 72.7168C148.281 72.498 148.336 72.3203 148.473 72.1836C148.527 72.1289 148.609 72.0742 148.719 72.0195C148.828 71.9648 148.924 71.9102 149.006 71.8555C149.361 71.6094 149.662 71.3633 149.908 71.1172C150.154 70.8711 150.496 70.6934 150.934 70.584C151.316 70.2832 151.658 69.9824 151.959 69.6816C152.287 69.3809 152.615 69.1074 152.943 68.8613C153.271 68.6152 153.627 68.4238 154.01 68.2871C154.393 68.123 154.871 68.041 155.445 68.041C155.555 68.041 155.664 68.0547 155.773 68.082H156.102C157.223 69.1211 157.92 70.3926 158.193 71.8965C157.893 72.2793 157.646 72.6895 157.455 73.127C157.291 73.5645 157.1 74.002 156.881 74.4395C156.416 74.6035 155.979 74.8496 155.568 75.1777C155.158 75.4785 154.748 75.793 154.338 76.1211C153.955 76.4492 153.545 76.7363 153.107 76.9824C152.697 77.2285 152.232 77.3516 151.713 77.3516C151.494 77.543 151.139 77.8574 150.646 78.2949C150.182 78.7051 149.689 79.1426 149.17 79.6074C148.678 80.0723 148.213 80.5098 147.775 80.9199C147.365 81.3301 147.105 81.6172 146.996 81.7812C146.914 81.918 146.846 82.041 146.791 82.1504C146.736 82.2598 146.682 82.3828 146.627 82.5195L145.561 84.3242C144.959 85.3633 144.344 86.3887 143.715 87.4004C143.086 88.3848 142.539 89.4238 142.074 90.5176C141.855 91.0098 141.678 91.502 141.541 91.9941C141.404 92.4863 141.268 93.0059 141.131 93.5527C141.076 93.7168 141.008 93.8809 140.926 94.0449C140.844 94.209 140.775 94.3594 140.721 94.4961C140.42 95.0703 140.174 95.6035 139.982 96.0957C139.791 96.5879 139.682 97.1621 139.654 97.8184C138.971 99.3496 138.328 100.895 137.727 102.453C137.152 103.984 136.715 105.57 136.414 107.211C136.578 107.758 136.646 108.318 136.619 108.893V110.533C136.619 111.217 136.66 111.777 136.742 112.215C136.852 112.68 136.988 113.09 137.152 113.445C137.344 113.828 137.549 114.211 137.768 114.594C137.986 115.004 138.219 115.482 138.465 116.029C138.875 116.357 139.244 116.699 139.572 117.055C139.9 117.438 140.215 117.848 140.516 118.285C141.555 118.805 142.607 119.064 143.674 119.064C144.439 119.064 145.219 118.941 146.012 118.695C146.805 118.449 147.57 118.135 148.309 117.752C149.074 117.396 149.812 117 150.523 116.562C151.234 116.125 151.918 115.701 152.574 115.291C153.723 114.607 154.721 113.869 155.568 113.076C156.416 112.283 157.182 111.449 157.865 110.574C158.576 109.699 159.232 108.77 159.834 107.785C160.436 106.773 161.064 105.707 161.721 104.586C161.748 104.449 161.803 104.285 161.885 104.094L162.131 103.479C162.213 103.26 162.281 103.068 162.336 102.904C162.418 102.713 162.459 102.59 162.459 102.535C162.459 102.316 162.404 102.166 162.295 102.084C162.213 101.975 162.172 101.865 162.172 101.756C162.172 101.537 162.227 101.387 162.336 101.305C162.445 101.223 162.568 101.141 162.705 101.059C162.869 100.977 163.006 100.881 163.115 100.771C163.252 100.662 163.32 100.457 163.32 100.156C163.266 100.129 163.17 100.115 163.033 100.115C162.896 100.115 162.76 100.129 162.623 100.156C162.486 100.184 162.35 100.197 162.213 100.197C161.885 100.197 161.611 100.088 161.393 99.8691C161.256 99.9238 161.119 100.02 160.982 100.156C160.846 100.266 160.709 100.389 160.572 100.525C160.463 100.662 160.354 100.785 160.244 100.895C160.135 101.004 160.039 101.059 159.957 101.059C159.82 101.059 159.711 101.031 159.629 100.977C159.574 100.922 159.492 100.895 159.383 100.895C158.918 100.895 158.508 101.004 158.152 101.223C157.797 101.441 157.414 101.619 157.004 101.756H156.758C156.676 101.729 156.594 101.715 156.512 101.715C156.211 101.715 155.91 101.77 155.609 101.879C155.336 101.961 155.062 102.057 154.789 102.166C154.543 102.275 154.283 102.371 154.01 102.453C153.736 102.535 153.463 102.562 153.189 102.535C152.588 102.754 152.027 102.986 151.508 103.232C151.016 103.479 150.441 103.574 149.785 103.52C149.594 103.602 149.389 103.697 149.17 103.807C148.979 103.889 148.787 103.998 148.596 104.135C148.432 104.189 148.309 104.217 148.227 104.217C148.09 104.217 147.98 104.148 147.898 104.012C147.68 104.258 147.393 104.436 147.037 104.545C146.682 104.627 146.312 104.709 145.93 104.791C145.547 104.846 145.178 104.928 144.822 105.037C144.494 105.119 144.234 105.297 144.043 105.57C143.742 105.324 143.387 105.201 142.977 105.201C142.566 105.201 142.17 105.283 141.787 105.447C141.404 105.584 140.994 105.652 140.557 105.652C140.393 105.652 140.283 105.625 140.229 105.57C140.119 105.27 139.996 104.969 139.859 104.668C139.723 104.367 139.504 104.148 139.203 104.012C139.148 103.711 139.094 103.424 139.039 103.15C139.012 102.85 138.998 102.562 138.998 102.289C138.998 101.551 139.217 100.881 139.654 100.279C140.037 100.143 140.42 100.033 140.803 99.9512C141.213 99.8418 141.609 99.7188 141.992 99.582C142.293 99.6367 142.594 99.6777 142.895 99.7051C143.195 99.7324 143.496 99.7461 143.797 99.7461C144.918 99.7461 146.012 99.6094 147.078 99.3359C148.145 99.0352 149.197 98.7207 150.236 98.3926C151.221 98.0918 152.219 97.8184 153.23 97.5723C154.242 97.3262 155.254 97.0527 156.266 96.752C157.223 96.5059 158.166 96.2324 159.096 95.9316C160.025 95.6035 160.996 95.3984 162.008 95.3164C162.664 94.8516 163.457 94.5371 164.387 94.373C165.344 94.209 166.219 94.0312 167.012 93.8398C168.27 93.5391 169.514 93.2383 170.744 92.9375C171.975 92.6094 173.232 92.3223 174.518 92.0762C174.619 92.0547 174.72 92.033 174.821 92.0108C175.208 91.5587 175.612 91.1156 176.035 90.6816C176.035 90.5176 176.062 90.3809 176.117 90.2715C176.199 90.1621 176.213 89.998 176.158 89.7793C176.186 89.8066 176.24 89.8203 176.322 89.8203C176.541 89.8203 176.678 89.7656 176.732 89.6562C176.787 89.5195 176.801 89.3691 176.773 89.2051C177.758 88.5762 178.646 87.8516 179.439 87.0312C180.26 86.2109 181.189 85.5273 182.229 84.9805C182.311 84.7344 182.447 84.5293 182.639 84.3652C182.83 84.2012 182.98 84.0098 183.09 83.791C183.965 83.5449 184.758 83.1758 185.469 82.6836C186.18 82.1914 186.932 81.7539 187.725 81.3711C188.162 81.125 188.572 80.9609 188.955 80.8789C189.365 80.7695 189.803 80.6602 190.268 80.5508C190.432 80.4961 190.582 80.4551 190.719 80.4277C190.855 80.4004 191.006 80.3867 191.17 80.3867C191.662 80.3867 192.141 80.4824 192.605 80.6738C193.07 80.8379 193.549 80.9199 194.041 80.9199H194.369L194.697 80.8379C195.162 81.4121 195.75 81.8496 196.461 82.1504C196.625 82.5605 196.816 82.916 197.035 83.2168L197.773 84.1191C198.02 84.3926 198.238 84.707 198.43 85.0625C198.648 85.3906 198.785 85.7871 198.84 86.252C198.676 86.498 198.58 86.7715 198.553 87.0723C198.525 87.373 198.512 87.6465 198.512 87.8926V88.877C198.539 89.1777 198.553 89.4785 198.553 89.7793V90.3945C198.498 90.5859 198.416 90.7773 198.307 90.9688C198.197 91.1602 198.115 91.3516 198.061 91.543C197.678 92.5547 197.486 93.5664 197.486 94.5781V94.6602C197.35 94.9883 197.213 95.2891 197.076 95.5625L196.748 96.3828C196.639 96.6289 196.557 96.9023 196.502 97.2031C196.447 97.4766 196.434 97.8047 196.461 98.1875C196.078 99.1445 195.572 100.02 194.943 100.812C194.314 101.578 193.699 102.371 193.098 103.191C192.523 103.41 191.99 103.697 191.498 104.053C191.033 104.408 190.582 104.805 190.145 105.242C189.297 105.516 188.463 105.83 187.643 106.186C186.822 106.541 186.084 107.02 185.428 107.621C184.908 107.676 184.389 107.758 183.869 107.867C183.35 107.977 182.844 108.141 182.352 108.359H181.859C181.613 108.359 181.436 108.305 181.326 108.195C180.971 108.387 180.602 108.523 180.219 108.605C179.836 108.66 179.453 108.688 179.07 108.688C178.578 108.688 178.086 108.66 177.594 108.605C177.129 108.523 176.65 108.441 176.158 108.359C175.885 107.977 175.502 107.689 175.01 107.498C174.518 107.279 174.08 107.074 173.697 106.883C172.904 105.789 172.33 104.736 171.975 103.725C171.619 102.686 171.25 101.523 170.867 100.238C170.922 99.8555 171.018 99.4863 171.154 99.1309C171.291 98.748 171.346 98.3379 171.318 97.9004ZM147.334 138.158C147.58 138.131 147.812 138.049 148.031 137.912C148.004 137.365 147.99 136.832 147.99 136.312C147.99 135.766 147.867 135.26 147.621 134.795C147.238 134.713 146.924 134.59 146.678 134.426C146.432 134.262 146.199 134.098 145.98 133.934C145.762 133.742 145.516 133.592 145.242 133.482C144.969 133.346 144.6 133.277 144.135 133.277C143.342 133.277 142.576 133.387 141.838 133.605C141.127 133.824 140.389 133.934 139.623 133.934H139.336C139.254 133.934 139.172 133.92 139.09 133.893C138.625 134.221 138.119 134.48 137.572 134.672C137.053 134.863 136.52 134.959 135.973 134.959H135.85C135.193 135.369 134.496 135.684 133.758 135.902C133.02 136.094 132.268 136.271 131.502 136.436C130.736 136.572 129.984 136.736 129.246 136.928C128.508 137.119 127.811 137.393 127.154 137.748C126.854 137.721 126.594 137.734 126.375 137.789C126.184 137.844 125.992 137.912 125.801 137.994C125.609 138.076 125.418 138.172 125.227 138.281C125.062 138.391 124.871 138.459 124.652 138.486L123.791 138.568C123.354 138.678 122.916 138.801 122.479 138.938C122.068 139.047 121.631 139.102 121.166 139.102C120.865 139.102 120.646 139.088 120.51 139.061C120.291 139.307 119.99 139.498 119.607 139.635C119.252 139.771 118.855 139.895 118.418 140.004C118.008 140.113 117.598 140.236 117.188 140.373C116.777 140.51 116.422 140.701 116.121 140.947C115.984 140.756 115.779 140.66 115.506 140.66C115.15 140.66 114.781 140.77 114.398 140.988C114.043 141.18 113.674 141.275 113.291 141.275C112.936 141.275 112.662 141.166 112.471 140.947C112.252 141.248 111.951 141.467 111.568 141.604C111.186 141.74 110.816 141.809 110.461 141.809C110.297 141.809 110.133 141.795 109.969 141.768C109.805 141.74 109.654 141.672 109.518 141.562C109.463 141.809 109.326 142 109.107 142.137C108.889 142.273 108.643 142.383 108.369 142.465C108.123 142.52 107.863 142.588 107.59 142.67C107.289 142.725 107.043 142.807 106.852 142.916C106.688 142.834 106.537 142.793 106.4 142.793C105.936 142.793 105.484 142.875 105.047 143.039C104.609 143.203 104.172 143.285 103.734 143.285H103.365C103.256 143.258 103.133 143.23 102.996 143.203C102.395 143.504 101.957 143.969 101.684 144.598C101.41 145.227 101.273 145.883 101.273 146.566C101.273 147.086 101.355 147.633 101.52 148.207C102.066 148.426 102.545 148.658 102.955 148.904C103.365 149.15 103.871 149.301 104.473 149.355C104.555 148.918 104.746 148.631 105.047 148.494C105.895 148.412 106.729 148.234 107.549 147.961C108.342 147.688 109.135 147.4 109.928 147.1C110.721 146.771 111.514 146.471 112.307 146.197C113.127 145.924 113.961 145.746 114.809 145.664C114.781 145.391 114.863 145.227 115.055 145.172C115.273 145.117 115.479 145.049 115.67 144.967C115.807 144.994 115.93 145.008 116.039 145.008H116.449C117.023 145.008 117.598 144.926 118.172 144.762C118.746 144.598 119.334 144.502 119.936 144.475C120.072 144.229 120.291 144.051 120.592 143.941C120.92 143.805 121.234 143.736 121.535 143.736C121.754 143.736 122 143.791 122.273 143.9C122.355 144.311 122.396 144.707 122.396 145.09C122.396 145.883 122.328 146.676 122.191 147.469C122.055 148.234 121.986 149 121.986 149.766C121.822 150.039 121.713 150.367 121.658 150.75C121.604 151.133 121.576 151.529 121.576 151.939C121.576 152.322 121.562 152.691 121.535 153.047C121.508 153.402 121.426 153.689 121.289 153.908C121.234 155.494 121.057 157.053 120.756 158.584C120.455 160.088 120.236 161.619 120.1 163.178C120.072 163.396 120.045 163.684 120.018 164.039C120.018 164.367 119.99 164.709 119.936 165.064C119.881 165.42 119.799 165.748 119.689 166.049C119.607 166.35 119.484 166.568 119.32 166.705C119.375 167.607 119.375 168.51 119.32 169.412C119.266 170.287 119.238 171.176 119.238 172.078C119.238 173.035 119.334 173.951 119.525 174.826V174.99C119.525 175.127 119.457 175.236 119.32 175.318C119.211 175.373 119.17 175.469 119.197 175.605V175.688C119.334 175.77 119.416 175.893 119.443 176.057C119.498 176.221 119.525 176.371 119.525 176.508C119.525 176.836 119.457 177.096 119.32 177.287C119.703 177.506 119.908 177.861 119.936 178.354C119.99 178.846 120.045 179.283 120.1 179.666C120.264 179.967 120.428 180.213 120.592 180.404C120.756 180.596 120.824 180.883 120.797 181.266C121.07 181.457 121.303 181.648 121.494 181.84C121.713 182.059 121.877 182.305 121.986 182.578C122.096 182.633 122.191 182.66 122.273 182.66C122.355 182.688 122.451 182.701 122.561 182.701C122.779 182.701 122.998 182.633 123.217 182.496C123.436 182.359 123.613 182.291 123.75 182.291C123.832 182.346 123.941 182.414 124.078 182.496C124.242 182.578 124.365 182.619 124.447 182.619C124.693 182.619 124.939 182.537 125.186 182.373C125.459 182.236 125.664 182.072 125.801 181.881C125.91 181.744 125.992 181.471 126.047 181.061C126.129 180.65 126.197 180.336 126.252 180.117C126.307 179.844 126.375 179.57 126.457 179.297C126.539 179.051 126.58 178.791 126.58 178.518V178.354C126.197 178.025 125.76 177.779 125.268 177.615C124.803 177.479 124.393 177.232 124.037 176.877C124.064 176.74 124.078 176.604 124.078 176.467C124.105 176.33 124.119 176.193 124.119 176.057C124.119 175.701 123.996 175.332 123.75 174.949C123.805 174.074 123.764 173.227 123.627 172.406C123.518 171.559 123.463 170.697 123.463 169.822C123.463 169.658 123.477 169.508 123.504 169.371L123.668 168.879L124.037 166.172C124.256 164.559 124.434 162.945 124.57 161.332C124.734 159.719 125.049 158.133 125.514 156.574C125.459 156.355 125.432 156.191 125.432 156.082C125.432 155.918 125.459 155.768 125.514 155.631C125.568 155.467 125.664 155.344 125.801 155.262L125.842 155.18C125.842 155.016 125.787 154.906 125.678 154.852C125.568 154.77 125.514 154.66 125.514 154.523V154.359C125.787 152.691 126.006 150.996 126.17 149.273C126.334 147.551 126.662 145.855 127.154 144.188C127.1 143.969 127.031 143.736 126.949 143.49C126.867 143.244 126.826 142.984 126.826 142.711C126.826 142.656 126.84 142.615 126.867 142.588C127.688 142.15 128.535 141.781 129.41 141.48C130.285 141.18 131.174 140.906 132.076 140.66C132.979 140.414 133.881 140.182 134.783 139.963C135.686 139.744 136.574 139.484 137.449 139.184C137.477 139.375 137.586 139.443 137.777 139.389C137.996 139.334 138.133 139.375 138.188 139.512C138.297 139.238 138.475 139.033 138.721 138.896C138.994 138.76 139.281 138.65 139.582 138.568C139.91 138.486 140.211 138.404 140.484 138.322C140.785 138.213 141.045 138.076 141.264 137.912C141.455 138.049 141.646 138.117 141.838 138.117C142.111 138.117 142.385 138.049 142.658 137.912C142.932 137.775 143.205 137.666 143.479 137.584C143.807 137.803 144.135 138.008 144.463 138.199C144.791 138.391 145.092 138.623 145.365 138.896C145.475 138.678 145.639 138.527 145.857 138.445C146.076 138.363 146.309 138.309 146.555 138.281C146.828 138.227 147.088 138.186 147.334 138.158ZM165.504 174.949C165.777 174.703 165.955 174.389 166.037 174.006C165.818 173.787 165.641 173.555 165.504 173.309C165.367 173.035 165.189 172.775 164.971 172.529C164.861 172.611 164.684 172.652 164.438 172.652C164.109 172.652 163.795 172.584 163.494 172.447C163.221 172.283 162.92 172.201 162.592 172.201C162.291 172.201 162.004 172.311 161.73 172.529C161.32 172.256 160.924 171.969 160.541 171.668C160.186 171.34 159.898 170.943 159.68 170.479C160.281 170.26 160.896 170.15 161.525 170.15C161.744 170.15 161.908 170.164 162.018 170.191C161.908 170.027 161.854 169.877 161.854 169.74C161.854 169.494 161.963 169.275 162.182 169.084C162.4 168.893 162.51 168.633 162.51 168.305C162.51 168.141 162.455 167.949 162.346 167.73C162.182 167.676 162.018 167.648 161.854 167.648H161.443C161.197 167.648 160.896 167.662 160.541 167.689C160.213 167.689 159.871 167.676 159.516 167.648C159.16 167.594 158.832 167.512 158.531 167.402C158.258 167.293 158.053 167.102 157.916 166.828C157.533 166.062 157.246 165.215 157.055 164.285C156.891 163.328 156.699 162.439 156.48 161.619C156.398 161.291 156.303 160.963 156.193 160.635C156.111 160.307 156.002 159.992 155.865 159.691L155.578 159.035C155.414 158.68 155.359 158.27 155.414 157.805C155.469 157.312 155.469 156.875 155.414 156.492C155.332 156 155.182 155.521 154.963 155.057C154.744 154.592 154.594 154.1 154.512 153.58C154.375 152.705 154.17 151.857 153.896 151.037C153.65 150.189 153.418 149.328 153.199 148.453C153.062 147.934 152.967 147.414 152.912 146.895C152.885 146.348 152.693 145.883 152.338 145.5C151.627 145.445 151.053 145.377 150.615 145.295C150.178 145.186 149.672 144.898 149.098 144.434C148.77 144.57 148.523 144.803 148.359 145.131C148.195 145.432 147.949 145.65 147.621 145.787C147.621 145.814 147.607 145.842 147.58 145.869C147.58 146.006 147.635 146.102 147.744 146.156C147.854 146.184 147.908 146.266 147.908 146.402V146.525C147.525 146.963 147.225 147.469 147.006 148.043C146.814 148.59 146.637 149.15 146.473 149.725C146.309 150.271 146.117 150.805 145.898 151.324C145.707 151.844 145.406 152.295 144.996 152.678C144.941 152.951 144.887 153.266 144.832 153.621C144.805 153.949 144.6 154.127 144.217 154.154C144.107 154.893 143.93 155.562 143.684 156.164C143.465 156.766 143.205 157.354 142.904 157.928L142.002 159.568C141.701 160.115 141.428 160.717 141.182 161.373C140.99 161.318 140.867 161.359 140.812 161.496C140.785 161.605 140.703 161.66 140.566 161.66C140.566 161.961 140.512 162.221 140.402 162.439C140.32 162.658 140.129 162.795 139.828 162.85C139.582 163.943 139.049 164.928 138.229 165.803V166.664C137.654 167.184 137.135 167.771 136.67 168.428L135.275 170.396C134.838 171.025 134.346 171.627 133.799 172.201C133.252 172.775 132.609 173.24 131.871 173.596C131.844 173.842 131.912 174.02 132.076 174.129C132.24 174.211 132.322 174.375 132.322 174.621C132.021 174.73 131.789 174.908 131.625 175.154C131.461 175.373 131.338 175.633 131.256 175.934C131.174 176.207 131.119 176.508 131.092 176.836C131.037 177.137 131.01 177.424 131.01 177.697C131.311 178.545 131.857 178.969 132.65 178.969C133.033 178.969 133.443 178.873 133.881 178.682C134.318 178.49 134.688 178.271 134.988 178.025C134.934 177.67 134.975 177.41 135.111 177.246C135.412 177.109 135.658 176.918 135.85 176.672C136.068 176.426 136.273 176.166 136.465 175.893C136.656 175.619 136.848 175.359 137.039 175.113C137.23 174.867 137.477 174.662 137.777 174.498C137.777 174.115 137.887 173.828 138.105 173.637C138.324 173.445 138.461 173.186 138.516 172.857C138.68 172.885 138.803 172.871 138.885 172.816C138.994 172.734 139.076 172.652 139.131 172.57L139.295 172.242C139.35 172.105 139.432 172.01 139.541 171.955C139.705 171.955 139.855 171.914 139.992 171.832C140.539 171.969 141.072 172.037 141.592 172.037C141.975 172.037 142.344 172.023 142.699 171.996C143.082 171.969 143.465 171.955 143.848 171.955H144.217C144.408 171.955 144.49 171.887 144.463 171.75C144.463 171.613 144.545 171.545 144.709 171.545C144.928 171.654 145.119 171.709 145.283 171.709C145.557 171.709 145.803 171.641 146.021 171.504C146.24 171.34 146.486 171.203 146.76 171.094C146.951 171.148 147.129 171.176 147.293 171.176H147.867C148.551 171.176 149.234 171.107 149.918 170.971C150.602 170.834 151.258 170.67 151.887 170.479C152.051 170.561 152.201 170.67 152.338 170.807C152.475 170.916 152.611 171.012 152.748 171.094C152.939 170.684 153.281 170.479 153.773 170.479H154.102C154.43 170.807 154.717 171.189 154.963 171.627C155.209 172.064 155.441 172.502 155.66 172.939C155.879 173.377 156.098 173.801 156.316 174.211C156.562 174.594 156.85 174.922 157.178 175.195C157.424 175.414 157.602 175.496 157.711 175.441C157.848 175.387 158.012 175.4 158.203 175.482C158.34 175.537 158.436 175.605 158.49 175.688C158.572 175.77 158.641 175.852 158.695 175.934L158.941 176.098C159.051 176.152 159.215 176.18 159.434 176.18C159.598 176.18 159.762 176.166 159.926 176.139C160.117 176.111 160.309 176.098 160.5 176.098C160.637 176.098 160.773 176.111 160.91 176.139C161.047 176.166 161.184 176.207 161.32 176.262C161.457 176.207 161.525 176.111 161.525 175.975C161.525 175.838 161.594 175.77 161.73 175.77C161.867 175.77 161.99 175.783 162.1 175.811H162.51C162.811 175.811 163.139 175.797 163.494 175.77C163.877 175.715 164.246 175.619 164.602 175.482C164.957 175.346 165.258 175.168 165.504 174.949ZM152.912 166.459C153.049 166.65 153.145 166.979 153.199 167.443C153.09 167.553 153.021 167.676 152.994 167.812C152.967 167.922 152.885 168.031 152.748 168.141C152.475 168.168 152.27 168.127 152.133 168.018C151.996 167.881 151.805 167.785 151.559 167.73C151.258 167.812 150.943 167.881 150.615 167.936C150.314 167.99 150 168.018 149.672 168.018C149.043 168.018 148.455 167.922 147.908 167.73C147.635 167.922 147.279 168.045 146.842 168.1C146.432 168.127 146.049 168.195 145.693 168.305C145.475 168.086 145.229 167.949 144.955 167.895C144.682 167.84 144.395 167.812 144.094 167.812H143.15C142.85 167.785 142.576 167.703 142.33 167.566C142.33 167.184 142.385 166.801 142.494 166.418C142.631 166.035 142.877 165.721 143.232 165.475C143.479 164.627 143.807 163.82 144.217 163.055C144.627 162.262 145.051 161.482 145.488 160.717C145.953 159.951 146.391 159.186 146.801 158.42C147.211 157.627 147.525 156.793 147.744 155.918C148.018 155.754 148.209 155.535 148.318 155.262C148.455 154.961 148.66 154.742 148.934 154.605C148.934 154.414 148.906 154.236 148.852 154.072C148.824 153.908 148.811 153.73 148.811 153.539C148.811 153.32 148.852 153.129 148.934 152.965C149.262 153.184 149.494 153.471 149.631 153.826C149.795 154.154 149.918 154.523 150 154.934C150.109 155.316 150.219 155.713 150.328 156.123C150.438 156.506 150.615 156.834 150.861 157.107V157.23C150.861 157.367 150.807 157.518 150.697 157.682C151.053 158.557 151.34 159.459 151.559 160.389C151.805 161.318 152.023 162.248 152.215 163.178C152.297 163.588 152.352 164.012 152.379 164.449C152.434 164.887 152.516 165.297 152.625 165.68C152.707 165.98 152.803 166.24 152.912 166.459ZM174.076 171.996C174.268 171.805 174.432 171.6 174.568 171.381C174.268 170.889 173.994 170.396 173.748 169.904C173.502 169.412 173.324 168.893 173.215 168.346C173.188 168.346 173.119 168.318 173.01 168.264C172.873 168.236 172.764 168.291 172.682 168.428C172.6 168.537 172.49 168.578 172.354 168.551L172.271 168.51C171.779 167.307 171.561 166.008 171.615 164.613C171.67 163.191 171.793 161.742 171.984 160.266C172.176 158.789 172.312 157.326 172.395 155.877C172.477 154.4 172.299 153.006 171.861 151.693C171.615 151.475 171.355 151.283 171.082 151.119C170.809 150.928 170.494 150.805 170.139 150.75C169.92 150.695 169.688 150.709 169.441 150.791C169.223 150.846 169.004 150.914 168.785 150.996C168.812 151.105 168.812 151.215 168.785 151.324C168.758 151.57 168.648 151.734 168.457 151.816C168.266 151.871 168.129 152.008 168.047 152.227C168.238 152.363 168.307 152.582 168.252 152.883C168.225 153.074 168.17 153.252 168.088 153.416C168.033 153.553 167.979 153.73 167.924 153.949L167.965 154.154C168.211 154.838 168.334 155.576 168.334 156.369C168.334 157.135 168.279 157.873 168.17 158.584C168.061 159.377 167.938 160.156 167.801 160.922C167.664 161.688 167.541 162.467 167.432 163.26C167.404 163.479 167.363 163.725 167.309 163.998C167.281 164.244 167.268 164.504 167.268 164.777C167.295 164.996 167.336 165.229 167.391 165.475C167.445 165.721 167.486 165.967 167.514 166.213C167.65 167.252 167.732 168.277 167.76 169.289C168.061 169.754 168.375 170.246 168.703 170.766C169.059 171.285 169.441 171.777 169.852 172.242C169.961 172.215 170.07 172.215 170.18 172.242C170.453 172.27 170.645 172.365 170.754 172.529C170.863 172.666 171.027 172.762 171.246 172.816C171.355 172.707 171.492 172.652 171.656 172.652C171.848 172.625 172.039 172.625 172.23 172.652H172.887C173.133 172.652 173.352 172.611 173.543 172.529C173.707 172.338 173.885 172.16 174.076 171.996ZM212.795 150.791H212.959C212.904 150.545 212.836 150.299 212.754 150.053C212.672 149.807 212.631 149.561 212.631 149.314V149.109C212.658 149.027 212.672 148.945 212.672 148.863C212.398 148.508 212.166 148.111 211.975 147.674L211.482 146.361C211.346 145.896 211.182 145.459 210.99 145.049C210.826 144.639 210.607 144.297 210.334 144.023C210.252 144.023 210.17 144.037 210.088 144.064H209.924C209.705 144.064 209.514 144.01 209.35 143.9C209.213 143.791 209.076 143.668 208.939 143.531C208.803 143.395 208.652 143.271 208.488 143.162C208.352 143.053 208.188 142.998 207.996 142.998C207.668 142.998 207.436 143.094 207.299 143.285C207.162 143.477 206.984 143.668 206.766 143.859C206.848 144.215 206.916 144.57 206.971 144.926C207.053 145.281 207.094 145.637 207.094 145.992C207.094 146.375 207.053 146.703 206.971 146.977C207.162 147.086 207.299 147.277 207.381 147.551C207.49 147.797 207.559 148.07 207.586 148.371L207.709 149.273C207.764 149.574 207.846 149.834 207.955 150.053C207.982 151.611 208.064 153.184 208.201 154.77C208.365 156.328 208.447 157.9 208.447 159.486V160.512C208.447 160.84 208.434 161.168 208.406 161.496C208.188 161.824 208.023 162.207 207.914 162.645C207.832 163.055 207.723 163.465 207.586 163.875C207.477 164.285 207.312 164.668 207.094 165.023C206.902 165.352 206.602 165.611 206.191 165.803C205.973 166.623 205.604 167.348 205.084 167.977C204.564 168.578 203.826 168.879 202.869 168.879H202.377C202.213 168.496 201.967 168.154 201.639 167.854L200.736 166.951C200.518 165.885 200.381 164.818 200.326 163.752C200.271 162.658 200.244 161.564 200.244 160.471V158.297L200.326 156.082C200.189 155.809 199.984 155.617 199.711 155.508V154.605C199.438 154.523 199.191 154.4 198.973 154.236C198.754 154.045 198.535 153.867 198.316 153.703C198.125 153.512 197.906 153.348 197.66 153.211C197.441 153.047 197.182 152.965 196.881 152.965H196.799C196.58 153.102 196.389 153.279 196.225 153.498L195.732 154.154C195.924 154.264 196.02 154.455 196.02 154.729C195.828 155.084 195.719 155.453 195.691 155.836L195.609 156.984C195.609 157.367 195.568 157.736 195.486 158.092C195.432 158.447 195.281 158.762 195.035 159.035C195.09 159.172 195.131 159.309 195.158 159.445C195.186 159.555 195.199 159.678 195.199 159.814C195.199 160.307 195.09 160.771 194.871 161.209C194.68 161.646 194.584 162.111 194.584 162.604V162.686C194.447 162.713 194.338 162.781 194.256 162.891C194.201 162.973 194.146 163.068 194.092 163.178C194.064 163.287 194.023 163.383 193.969 163.465C193.914 163.547 193.818 163.588 193.682 163.588L193.559 163.547C193.641 163.902 193.6 164.148 193.436 164.285C193.299 164.422 193.23 164.613 193.23 164.859C193.23 164.941 193.244 165.01 193.271 165.064C192.971 165.229 192.711 165.434 192.492 165.68C192.273 165.926 192.055 166.186 191.836 166.459C191.617 166.705 191.385 166.951 191.139 167.197C190.92 167.416 190.646 167.594 190.318 167.73C190.346 167.812 190.305 167.922 190.195 168.059C190.113 168.195 190.004 168.332 189.867 168.469C189.73 168.605 189.58 168.742 189.416 168.879C189.279 169.016 189.184 169.125 189.129 169.207H188.555C188.391 169.508 188.172 169.74 187.898 169.904C187.652 170.068 187.379 170.219 187.078 170.355C186.805 170.492 186.531 170.656 186.258 170.848C185.984 171.012 185.766 171.244 185.602 171.545L185.191 171.627H184.781C184.535 171.627 184.275 171.613 184.002 171.586C183.729 171.531 183.469 171.504 183.223 171.504L182.812 171.545C182.594 171.135 182.389 170.738 182.197 170.355C182.033 169.945 181.842 169.562 181.623 169.207C181.76 168.66 181.828 168.113 181.828 167.566C181.855 166.992 181.979 166.459 182.197 165.967C182.17 165.83 182.129 165.693 182.074 165.557C182.047 165.42 182.033 165.283 182.033 165.146C182.033 164.846 182.115 164.49 182.279 164.08C182.443 163.67 182.553 163.314 182.607 163.014C182.826 162.057 183.018 161.1 183.182 160.143C183.346 159.186 183.674 158.27 184.166 157.395V156.082C184.494 155.371 184.754 154.592 184.945 153.744C185.137 152.896 185.287 152.021 185.396 151.119C185.533 150.217 185.615 149.328 185.643 148.453C185.697 147.551 185.725 146.703 185.725 145.91V144.926C185.205 144.516 184.658 144.146 184.084 143.818C183.537 143.463 182.977 143.135 182.402 142.834C182.102 142.971 181.855 143.162 181.664 143.408C181.5 143.627 181.35 143.873 181.213 144.146C181.295 144.693 181.336 145.213 181.336 145.705C181.336 146.744 181.254 147.756 181.09 148.74C180.953 149.725 180.885 150.736 180.885 151.775V152.186C180.885 152.295 180.898 152.418 180.926 152.555C180.68 153.348 180.461 154.154 180.27 154.975C180.105 155.795 179.955 156.615 179.818 157.436C179.764 157.846 179.723 158.283 179.695 158.748C179.668 159.213 179.586 159.637 179.449 160.02C179.395 160.238 179.299 160.402 179.162 160.512C179.025 160.621 178.93 160.758 178.875 160.922C178.82 161.086 178.793 161.25 178.793 161.414C178.793 161.578 178.779 161.729 178.752 161.865C178.725 162.467 178.643 163.055 178.506 163.629C178.342 164.641 178.137 165.639 177.891 166.623C177.645 167.607 177.521 168.605 177.521 169.617C177.713 169.672 177.85 169.795 177.932 169.986C178.014 170.15 178.055 170.342 178.055 170.561C178.082 170.779 178.096 171.012 178.096 171.258V171.832C178.314 172.133 178.479 172.461 178.588 172.816L178.998 173.883C179.49 174.129 179.818 174.361 179.982 174.58C180.174 174.799 180.352 174.99 180.516 175.154C180.707 175.291 180.953 175.414 181.254 175.523C181.582 175.605 182.129 175.646 182.895 175.646C183.387 175.646 183.879 175.633 184.371 175.605C184.891 175.551 185.41 175.51 185.93 175.482C186.395 175.182 186.873 174.895 187.365 174.621C187.885 174.348 188.418 174.102 188.965 173.883C189.402 173.145 190.004 172.557 190.77 172.119C190.906 172.064 191.029 172.023 191.139 171.996C191.275 171.941 191.398 171.887 191.508 171.832C191.727 171.695 191.945 171.49 192.164 171.217C192.41 170.916 192.615 170.656 192.779 170.438C193.299 169.863 193.805 169.289 194.297 168.715C194.816 168.113 195.391 167.58 196.02 167.115C196.348 167.963 196.703 168.783 197.086 169.576C197.469 170.369 197.92 171.08 198.439 171.709C198.986 172.311 199.629 172.803 200.367 173.186C201.105 173.568 201.994 173.76 203.033 173.76H203.361C203.471 173.76 203.594 173.746 203.73 173.719C204.523 173.172 205.398 172.734 206.355 172.406L207.668 170.766C208.133 170.191 208.68 169.713 209.309 169.33C209.5 168.564 209.801 167.867 210.211 167.238C210.621 166.582 211.004 165.898 211.359 165.188C211.359 164.723 211.4 164.271 211.482 163.834C211.592 163.369 211.701 162.918 211.811 162.48C211.92 162.016 212.016 161.564 212.098 161.127C212.207 160.662 212.262 160.197 212.262 159.732C212.262 158.803 212.166 157.887 211.975 156.984C211.811 156.055 211.701 155.111 211.646 154.154C211.783 154.018 211.906 153.854 212.016 153.662C212.125 153.471 212.248 153.293 212.385 153.129L212.139 153.006C212.057 152.951 212.016 152.883 212.016 152.801C212.016 152.637 212.111 152.445 212.303 152.227C212.521 151.98 212.631 151.693 212.631 151.365C212.631 151.283 212.604 151.133 212.549 150.914C212.549 150.859 212.576 150.818 212.631 150.791C212.686 150.764 212.74 150.764 212.795 150.791ZM242.911 175.64C242.706 175.696 242.498 175.739 242.285 175.77C241.93 175.797 241.602 175.811 241.301 175.811H240.891C240.781 175.783 240.658 175.77 240.521 175.77C240.385 175.77 240.316 175.838 240.316 175.975C240.316 176.111 240.248 176.207 240.111 176.262C239.975 176.207 239.838 176.166 239.701 176.139C239.564 176.111 239.428 176.098 239.291 176.098C239.1 176.098 238.908 176.111 238.717 176.139C238.553 176.166 238.389 176.18 238.225 176.18C238.006 176.18 237.842 176.152 237.732 176.098L237.486 175.934C237.432 175.852 237.363 175.77 237.281 175.688C237.227 175.605 237.131 175.537 236.994 175.482C236.803 175.4 236.639 175.387 236.502 175.441C236.393 175.496 236.215 175.414 235.969 175.195C235.641 174.922 235.354 174.594 235.107 174.211C234.889 173.801 234.67 173.377 234.451 172.939C234.232 172.502 234 172.064 233.754 171.627C233.508 171.189 233.221 170.807 232.893 170.479H232.564C232.072 170.479 231.73 170.684 231.539 171.094C231.402 171.012 231.266 170.916 231.129 170.807C230.992 170.67 230.842 170.561 230.678 170.479C230.049 170.67 229.393 170.834 228.709 170.971C228.025 171.107 227.342 171.176 226.658 171.176H226.084C225.92 171.176 225.742 171.148 225.551 171.094C225.277 171.203 225.031 171.34 224.812 171.504C224.594 171.641 224.348 171.709 224.074 171.709C223.91 171.709 223.719 171.654 223.5 171.545C223.336 171.545 223.254 171.613 223.254 171.75C223.281 171.887 223.199 171.955 223.008 171.955H222.639C222.256 171.955 221.873 171.969 221.49 171.996C221.135 172.023 220.766 172.037 220.383 172.037C219.863 172.037 219.33 171.969 218.783 171.832C218.646 171.914 218.496 171.955 218.332 171.955C218.223 172.01 218.141 172.105 218.086 172.242L217.922 172.57C217.867 172.652 217.785 172.734 217.676 172.816C217.594 172.871 217.471 172.885 217.307 172.857C217.252 173.186 217.115 173.445 216.896 173.637C216.678 173.828 216.568 174.115 216.568 174.498C216.268 174.662 216.021 174.867 215.83 175.113C215.639 175.359 215.447 175.619 215.256 175.893C215.064 176.166 214.859 176.426 214.641 176.672C214.449 176.918 214.203 177.109 213.902 177.246C213.766 177.41 213.725 177.67 213.779 178.025C213.479 178.271 213.109 178.49 212.672 178.682C212.234 178.873 211.824 178.969 211.441 178.969C210.648 178.969 210.102 178.545 209.801 177.697C209.801 177.424 209.828 177.137 209.883 176.836C209.91 176.508 209.965 176.207 210.047 175.934C210.129 175.633 210.252 175.373 210.416 175.154C210.58 174.908 210.812 174.73 211.113 174.621C211.113 174.375 211.031 174.211 210.867 174.129C210.703 174.02 210.635 173.842 210.662 173.596C211.4 173.24 212.043 172.775 212.59 172.201C213.137 171.627 213.629 171.025 214.066 170.396L215.461 168.428C215.926 167.771 216.445 167.184 217.02 166.664V165.803C217.84 164.928 218.373 163.943 218.619 162.85C218.92 162.795 219.111 162.658 219.193 162.439C219.303 162.221 219.357 161.961 219.357 161.66C219.494 161.66 219.576 161.605 219.604 161.496C219.658 161.359 219.781 161.318 219.973 161.373C220.219 160.717 220.492 160.115 220.793 159.568L221.695 157.928C221.996 157.354 222.256 156.766 222.475 156.164C222.721 155.562 222.898 154.893 223.008 154.154C223.391 154.127 223.596 153.949 223.623 153.621C223.678 153.266 223.732 152.951 223.787 152.678C224.197 152.295 224.498 151.844 224.689 151.324C224.908 150.805 225.1 150.271 225.264 149.725C225.428 149.15 225.605 148.59 225.797 148.043C226.016 147.469 226.316 146.963 226.699 146.525V146.402C226.699 146.266 226.645 146.184 226.535 146.156C226.426 146.102 226.371 146.006 226.371 145.869C226.398 145.842 226.412 145.814 226.412 145.787C226.74 145.65 226.986 145.432 227.15 145.131C227.314 144.803 227.561 144.57 227.889 144.434C228.463 144.898 228.969 145.186 229.406 145.295C229.844 145.377 230.418 145.445 231.129 145.5C231.484 145.883 231.676 146.348 231.703 146.895C231.758 147.414 231.854 147.934 231.99 148.453C232.209 149.328 232.441 150.189 232.688 151.037C232.961 151.857 233.166 152.705 233.303 153.58C233.385 154.1 233.535 154.592 233.754 155.057C233.973 155.521 234.123 156 234.205 156.492C234.26 156.875 234.26 157.312 234.205 157.805C234.15 158.27 234.205 158.68 234.369 159.035L234.656 159.691C234.793 159.992 234.902 160.307 234.984 160.635C235.094 160.963 235.189 161.291 235.271 161.619C235.49 162.439 235.682 163.328 235.846 164.285C236.037 165.215 236.324 166.062 236.707 166.828C236.844 167.102 237.049 167.293 237.322 167.402C237.623 167.512 237.951 167.594 238.307 167.648C238.662 167.676 239.004 167.689 239.332 167.689C239.688 167.662 239.988 167.648 240.234 167.648H240.645C240.809 167.648 240.973 167.676 241.137 167.73C241.246 167.949 241.301 168.141 241.301 168.305C241.301 168.633 241.191 168.893 240.973 169.084C240.754 169.275 240.645 169.494 240.645 169.74C240.645 169.877 240.699 170.027 240.809 170.191C240.699 170.164 240.535 170.15 240.316 170.15C239.688 170.15 239.072 170.26 238.471 170.479C238.689 170.943 238.977 171.34 239.332 171.668C239.715 171.969 240.111 172.256 240.521 172.529C240.795 172.311 241.082 172.201 241.383 172.201C241.711 172.201 242.012 172.283 242.285 172.447C242.586 172.584 242.9 172.652 243.229 172.652C243.233 172.652 243.238 172.652 243.242 172.652C243.431 171.505 243.673 170.37 243.967 169.248C244.24 168.1 244.541 166.965 244.869 165.844C245.225 164.695 245.553 163.547 245.854 162.398L245.895 162.275C245.895 162.139 245.854 162.043 245.771 161.988C245.717 161.934 245.689 161.852 245.689 161.742C245.689 161.688 245.703 161.66 245.73 161.66C245.812 161.387 245.895 161.127 245.977 160.881C246.086 160.635 246.168 160.361 246.223 160.061C246.387 159.295 246.496 158.516 246.551 157.723C246.633 156.902 246.674 156.096 246.674 155.303L246.756 152.924C246.811 152.104 246.906 151.297 247.043 150.504C247.262 150.285 247.467 150.053 247.658 149.807C247.85 149.561 248.096 149.342 248.396 149.15C248.943 149.178 249.49 149.26 250.037 149.396C250.584 149.533 251.104 149.752 251.596 150.053C251.924 151.229 252.143 152.404 252.252 153.58C252.389 154.756 252.607 155.932 252.908 157.107V157.23C252.908 157.367 252.977 157.436 253.113 157.436C253.277 157.408 253.4 157.449 253.482 157.559C253.428 157.641 253.387 157.736 253.359 157.846V158.174V158.871C253.414 159.09 253.482 159.322 253.564 159.568C253.646 159.814 253.824 159.965 254.098 160.02C254.234 160.895 254.439 161.701 254.713 162.439C254.986 163.178 255.301 163.889 255.656 164.572C256.012 165.256 256.395 165.939 256.805 166.623C257.215 167.279 257.639 167.977 258.076 168.715C258.76 169.234 259.348 169.836 259.84 170.52C260.332 171.176 260.824 171.818 261.316 172.447C261.836 173.049 262.41 173.582 263.039 174.047C263.695 174.512 264.543 174.799 265.582 174.908C265.719 174.799 265.814 174.648 265.869 174.457L266.074 173.883C266.156 173.691 266.238 173.527 266.32 173.391C266.43 173.227 266.58 173.104 266.771 173.021C266.826 172.256 266.881 171.477 266.936 170.684C267.018 169.891 267.195 169.139 267.469 168.428C267.332 168.182 267.264 167.881 267.264 167.525C267.264 167.252 267.277 166.992 267.305 166.746C267.359 166.5 267.387 166.254 267.387 166.008C267.387 165.488 267.277 165.064 267.059 164.736C267.059 164.545 267.072 164.354 267.1 164.162C267.127 163.943 267.209 163.738 267.346 163.547C267.127 163 266.949 162.426 266.812 161.824C266.703 161.223 266.648 160.607 266.648 159.979C266.648 159.623 266.689 159.254 266.771 158.871C266.607 158.461 266.498 157.982 266.443 157.436L266.279 155.754C266.225 155.18 266.143 154.646 266.033 154.154C265.924 153.662 265.719 153.266 265.418 152.965C265.582 152.719 265.664 152.432 265.664 152.104C265.664 151.557 265.582 151.037 265.418 150.545C265.254 150.053 265.172 149.533 265.172 148.986C265.172 148.604 265.254 148.221 265.418 147.838C266.02 147.865 266.607 147.934 267.182 148.043C267.783 148.125 268.371 148.166 268.945 148.166C269.109 148.385 269.301 148.562 269.52 148.699C269.738 148.836 269.971 148.973 270.217 149.109C270.463 149.219 270.695 149.342 270.914 149.479C271.16 149.615 271.352 149.807 271.488 150.053C271.434 150.381 271.352 150.668 271.242 150.914C271.16 151.133 271.146 151.434 271.201 151.816C270.928 151.844 270.709 151.939 270.545 152.104C270.408 152.24 270.285 152.404 270.176 152.596C270.094 152.787 269.998 152.992 269.889 153.211C269.807 153.402 269.697 153.58 269.561 153.744C269.779 154.729 269.902 155.727 269.93 156.738C269.957 157.75 270.025 158.748 270.135 159.732C270.271 160.99 270.477 162.234 270.75 163.465C271.051 164.668 271.201 165.898 271.201 167.156C271.201 167.539 271.188 167.895 271.16 168.223V169.248V169.945C271.188 170.164 271.201 170.383 271.201 170.602C271.201 171.395 271.092 172.188 270.873 172.98C270.682 173.773 270.531 174.566 270.422 175.359C270.094 175.66 269.807 175.988 269.561 176.344C269.342 176.699 269.109 177.027 268.863 177.328C268.617 177.629 268.33 177.889 268.002 178.107C267.674 178.354 267.264 178.518 266.771 178.6C266.689 178.873 266.525 179.078 266.279 179.215C266.061 179.352 265.869 179.543 265.705 179.789H265.623C264.939 179.789 264.352 179.693 263.859 179.502C263.367 179.311 262.902 179.092 262.465 178.846C262.055 178.6 261.631 178.34 261.193 178.066C260.756 177.793 260.25 177.574 259.676 177.41C258.91 176.781 258.213 176.098 257.584 175.359C256.955 174.594 256.244 173.91 255.451 173.309C255.26 172.762 255 172.311 254.672 171.955C254.371 171.6 254.07 171.189 253.77 170.725C253.633 170.533 253.523 170.355 253.441 170.191C253.387 170.027 253.305 169.836 253.195 169.617C253.113 169.398 252.977 169.248 252.785 169.166C252.621 169.084 252.471 168.988 252.334 168.879C252.115 168.031 251.801 167.252 251.391 166.541C250.98 165.83 250.502 165.146 249.955 164.49C249.791 164.791 249.654 165.119 249.545 165.475C249.463 165.803 249.381 166.145 249.299 166.5C249.217 166.828 249.107 167.17 248.971 167.525C248.861 167.854 248.711 168.154 248.52 168.428V168.551C248.52 168.688 248.574 168.77 248.684 168.797C248.793 168.824 248.848 168.906 248.848 169.043C248.848 169.07 248.834 169.098 248.807 169.125V169.207C248.67 169.316 248.561 169.453 248.479 169.617C248.424 169.781 248.287 169.877 248.068 169.904C248.096 170.041 248.109 170.178 248.109 170.314V170.684C248.109 171.477 248.014 172.27 247.822 173.062C247.658 173.855 247.576 174.662 247.576 175.482V176.016C247.576 176.207 247.59 176.385 247.617 176.549C247.672 176.713 247.754 176.877 247.863 177.041C247.973 177.205 248.027 177.355 248.027 177.492C248.027 177.684 247.945 177.861 247.781 178.025C247.973 178.162 248.191 178.312 248.438 178.477C248.684 178.641 248.902 178.818 249.094 179.01C249.312 179.229 249.49 179.447 249.627 179.666C249.764 179.912 249.832 180.172 249.832 180.445C249.832 180.91 249.682 181.238 249.381 181.43C249.08 181.621 248.711 181.771 248.273 181.881C247.863 181.99 247.426 182.086 246.961 182.168C246.523 182.277 246.154 182.455 245.854 182.701H245.73C245.402 182.701 245.156 182.605 244.992 182.414C244.828 182.223 244.582 182.127 244.254 182.127C243.734 181.279 243.379 180.322 243.188 179.256C242.996 178.217 242.9 177.219 242.9 176.262C242.9 176.055 242.904 175.848 242.911 175.64ZM231.703 166.459C231.84 166.65 231.936 166.979 231.99 167.443C231.881 167.553 231.812 167.676 231.785 167.812C231.758 167.922 231.676 168.031 231.539 168.141C231.266 168.168 231.061 168.127 230.924 168.018C230.787 167.881 230.596 167.785 230.35 167.73C230.049 167.812 229.734 167.881 229.406 167.936C229.105 167.99 228.791 168.018 228.463 168.018C227.834 168.018 227.246 167.922 226.699 167.73C226.426 167.922 226.07 168.045 225.633 168.1C225.223 168.127 224.84 168.195 224.484 168.305C224.266 168.086 224.02 167.949 223.746 167.895C223.473 167.84 223.186 167.812 222.885 167.812H221.941C221.641 167.785 221.367 167.703 221.121 167.566C221.121 167.184 221.176 166.801 221.285 166.418C221.422 166.035 221.668 165.721 222.023 165.475C222.27 164.627 222.598 163.82 223.008 163.055C223.418 162.262 223.842 161.482 224.279 160.717C224.744 159.951 225.182 159.186 225.592 158.42C226.002 157.627 226.316 156.793 226.535 155.918C226.809 155.754 227 155.535 227.109 155.262C227.246 154.961 227.451 154.742 227.725 154.605C227.725 154.414 227.697 154.236 227.643 154.072C227.615 153.908 227.602 153.73 227.602 153.539C227.602 153.32 227.643 153.129 227.725 152.965C228.053 153.184 228.285 153.471 228.422 153.826C228.586 154.154 228.709 154.523 228.791 154.934C228.9 155.316 229.01 155.713 229.119 156.123C229.229 156.506 229.406 156.834 229.652 157.107V157.23C229.652 157.367 229.598 157.518 229.488 157.682C229.844 158.557 230.131 159.459 230.35 160.389C230.596 161.318 230.814 162.248 231.006 163.178C231.088 163.588 231.143 164.012 231.17 164.449C231.225 164.887 231.307 165.297 231.416 165.68C231.498 165.98 231.594 166.24 231.703 166.459Z"/>
</svg>
